<svg width="26" height="26" viewBox="0 0 26 26" fill="none" xmlns="http://www.w3.org/2000/svg">
<path d="M13.0299 8.94764C10.7806 8.94764 8.94491 10.7833 8.94491 13.0327C8.94491 15.2821 10.7806 17.1178 13.0299 17.1178C15.2793 17.1178 17.1149 15.2821 17.1149 13.0327C17.1149 10.7833 15.2793 8.94764 13.0299 8.94764ZM25.2818 13.0327C25.2818 11.3411 25.2972 9.66475 25.2022 7.97617C25.1072 6.01485 24.6597 4.27417 23.2255 2.83995C21.7883 1.40267 20.0507 0.958307 18.0894 0.863305C16.3978 0.768303 14.7215 0.783626 13.033 0.783626C11.3414 0.783626 9.66508 0.768303 7.97653 0.863305C6.01524 0.958307 4.2746 1.40573 2.8404 2.83995C1.40315 4.27724 0.958792 6.01485 0.863792 7.97617C0.768792 9.66782 0.784115 11.3441 0.784115 13.0327C0.784115 14.7213 0.768792 16.4007 0.863792 18.0893C0.958792 20.0506 1.40621 21.7913 2.8404 23.2255C4.27766 24.6628 6.01524 25.1071 7.97653 25.2021C9.66814 25.2971 11.3444 25.2818 13.033 25.2818C14.7246 25.2818 16.4009 25.2971 18.0894 25.2021C20.0507 25.1071 21.7914 24.6597 23.2255 23.2255C24.6628 21.7882 25.1072 20.0506 25.2022 18.0893C25.3002 16.4007 25.2818 14.7244 25.2818 13.0327V13.0327ZM13.0299 19.3181C9.55169 19.3181 6.74459 16.511 6.74459 13.0327C6.74459 9.55443 9.55169 6.74728 13.0299 6.74728C16.5081 6.74728 19.3152 9.55443 19.3152 13.0327C19.3152 16.511 16.5081 19.3181 13.0299 19.3181ZM19.5726 7.95779C18.7606 7.95779 18.1047 7.30197 18.1047 6.48986C18.1047 5.67775 18.7606 5.02193 19.5726 5.02193C20.3847 5.02193 21.0406 5.67775 21.0406 6.48986C21.0408 6.6827 21.003 6.87369 20.9293 7.0519C20.8556 7.2301 20.7475 7.39202 20.6112 7.52838C20.4748 7.66474 20.3129 7.77285 20.1347 7.84654C19.9565 7.92022 19.7655 7.95803 19.5726 7.95779V7.95779Z" fill="white"/>
</svg>
